# xmcd CD database file
#
# Track frame offsets:
#	150
#	19241
#	40478
#	53268
#	74828
#	92392
#	111557
#	123728
#	139776
#	152710
#	185453
#	209085
#	237766
#	257082
#	287238
#	300617
#	342142
#
# Disc length: 4767 seconds
#
# Revision: 1
# Processed by: cddbd v1.5.2PL0 Copyright (c) Steve Scherf et al.
# Submitted via: CDex 1.51
#
DISCID=02129d11
DTITLE=Gene Krupa - Four Classic Albums [CD2]
DYEAR=2014
DGENRE=Jazz
TTITLE0=The Gang That Sang Heart Of My Heart
TTITLE1=Gone With The Wind
TTITLE2=Pick Yourself Up
TTITLE3=Fire Place Blues
TTITLE4=But Not For Me
TTITLE5=Memories Of You
TTITLE6=Three Little Words
TTITLE7=Avalon
TTITLE8=Indiana (Back Home Again In Indiana)
TTITLE9=Tenderly
TTITLE10=Tepee
TTITLE11='S Wonderful
TTITLE12=Hippdeebip
TTITLE13=Krupa's Wail
TTITLE14=Strike Up The Band
TTITLE15=Undecided
TTITLE16=Gene's Bass Blues
EXTD=YEAR: 2014
EXTT0=
EXTT1=
EXTT2=
EXTT3=
EXTT4=
EXTT5=
EXTT6=
EXTT7=
EXTT8=
EXTT9=
EXTT10=
EXTT11=
EXTT12=
EXTT13=
EXTT14=
EXTT15=
EXTT16=
PLAYORDER=
